<?xml version="1.0" encoding="UTF-8" standalone="no"?><svg width="320" height="320" viewBox="0 0 320 320" fill="none" xmlns="http://www.w3.org/2000/svg"><style>#below:target~:not(.below){display:none}#primary:target~:not(.primary){display:none}#above:target~:not(.above){display:none}g[id]{display:none}</style><g id="below"></g><g id="primary"></g><g id="above"></g><path d="M93.64 243.47C96.97 248.15 100.69 252.56 104.64 256.7C107.41 259.61 110.38 262.64 113.71 264.92C113.73 271.36 114.68 279.19 118.98 285.8C124.18 293.79 134.52 295.68 142.05 293.42H142.08L142.11 293.4C146.86 291.61 153.14 288.07 156.11 281.37C158.13 276.81 158.04 271.33 156.15 266.73C162.95 265.07 169.55 262.72 175.78 259.73C177.78 258.77 179.73 257.71 181.64 256.61C181.59 256.57 181.54 256.55 181.49 256.51C195.16 254.99 210.81 250.79 224.63 240.38C268.58 207.29 275.35 176.27 275.55 155.83C279.27 144.61 280.21 132.52 277.36 120.44C276.98 115.61 275.38 110.94 272.64 107.19C266.03 93.59 253.88 81.08 239.88 79.67C243.48 83.16 246.92 87.02 249.98 91.33C263.38 110.2 266.42 135.52 256.77 147.78C254.57 150.57 251.87 152.73 249.26 154.83C246.65 156.92 243.96 159.07 241.85 161.81C236.3 169.02 234.59 180.76 237.16 194.02C237.82 197.42 238.76 201 239.67 204.46C240.01 205.77 240.36 207.08 240.69 208.39C252.17 195.97 262.73 182.28 270.7 167.16C271.83 165.02 272.85 162.84 273.76 160.62C272.48 180.63 263.69 208.97 223.66 239.09C216.24 244.68 208.26 248.45 200.35 250.96C195.25 252.58 190.18 253.66 185.3 254.38C186.59 253.57 187.86 252.76 189.13 251.91C189.75 251.5 190.28 250.92 190.73 250.26C205.67 240.79 219.61 229.79 232.19 217.23C234.62 214.8 237.03 212.32 239.4 209.78C238.99 208.14 238.56 206.5 238.13 204.87C237.21 201.38 236.26 197.77 235.59 194.32C232.94 180.61 234.76 168.4 240.59 160.84C242.81 157.95 245.58 155.73 248.26 153.59C250.8 151.55 253.44 149.45 255.52 146.8C263.58 136.56 263.26 112.79 248.68 92.25C245.3 87.49 241.44 83.29 237.4 79.52C235.14 79.51 232.85 79.79 230.52 80.41C222.03 82.67 214.67 87.59 208.11 93.24C207.35 93.89 206.62 94.56 205.91 95.25C205.7 95.18 205.49 95.09 205.28 95.02C194.8 91.51 183.16 91.64 171.73 95.26C168.71 96.22 165.71 97.42 162.75 98.86C150.57 104.79 140.39 113.77 129.29 124.03C124.91 128.08 118.9 133.63 117.59 141.45C117.12 144.28 117.28 147.18 117.77 150.09C108.34 151.33 99.45 154.1 92.11 160.91C89.05 163.75 86.48 167.04 84.37 170.65C87.09 170.4 89.86 170.28 92.57 170.16C96.56 169.98 100.68 169.8 104.54 169.23C117.94 167.24 129.6 160.62 140.36 148.75C133.36 149.05 126.24 149.11 119.37 149.89C118.9 147.1 118.74 144.35 119.18 141.7C120.31 134.97 124.92 130.24 130.39 125.19C141.4 115.02 151.49 106.12 163.46 100.28C177.22 93.57 191.85 92.23 204.67 96.48C201.99 99.24 199.67 102.3 197.87 105.84C195.7 110.12 194.44 114.91 192.37 119.25C184.47 135.81 168.4 146 150.52 148.01C147.89 148.31 145.22 148.49 142.53 148.63C131.22 161.41 118.77 168.71 104.78 170.79C100.84 171.38 96.68 171.56 92.65 171.74C89.6 171.88 86.47 172.02 83.44 172.33C77.13 184.26 75.71 199.35 79.19 213.34C81.9 224.22 87.12 234.23 93.66 243.43L93.64 243.47ZM183.03 255.64C182.56 255.85 182.09 256.05 181.61 256.24C181.52 256.29 181.42 256.35 181.33 256.4C163.12 244.06 148.03 251.73 138.32 260.79C134.02 264.81 129.05 267.57 123.79 269.09C131.38 270.63 139.64 269.6 146.65 268.58C149.32 268.19 151.97 267.69 154.6 267.09C156.57 271.67 156.3 276.95 154.64 280.7C151.9 286.89 146.02 290.19 141.56 291.88C134.6 293.96 125.08 292.23 120.31 284.91C116.45 278.98 115.43 271.93 115.31 265.93C115.75 266.19 116.2 266.45 116.66 266.68C117.9 267.3 119.19 267.81 120.51 268.23C126.58 267.03 132.35 264.17 137.23 259.61C147.53 250 163.63 241.9 183.03 255.62V255.64Z" fill="#F6F7F8" class="below"/><path d="M217.57 72.03C228.66 64.89 233.01 48.29 225.12 37.17C217.21 26.01 202.15 21.97 190.26 29.62C179.17 36.76 174.82 53.36 182.71 64.48C190.62 75.64 205.68 79.68 217.57 72.03Z" fill="#617179" class="below"/><path d="M220.17 31.68C220.17 31.68 227.34 40.8 208.03 55.29C182.29 74.61 179.52 57.86 179.52 57.86C173.23 62.67 171.33 72.29 179.02 76.8C188.87 82.58 204.2 75.74 212.87 70.16C223.74 63.16 235.42 52.78 237.46 39.63C238.98 29.79 231.77 24.78 220.17 31.68ZM183.35 63.73C183.28 63.7 183.25 63.67 183.27 63.63C183.28 63.61 183.31 63.65 183.35 63.73ZM183.91 68.87C183.91 68.87 183.93 68.84 183.95 68.83C183.8 69.04 183.71 69.06 183.91 68.87ZM227.86 39.29C228 39.18 228.07 39.09 227.86 39.29V39.29ZM226.85 36.87C226.84 36.76 226.84 36.68 226.89 36.68C226.91 36.68 226.89 36.76 226.85 36.87Z" fill="#FAC314" class="below"/><path d="M103.81 86.9C113.29 86.9 113.31 72.16 103.81 72.16C94.3101 72.16 94.3101 86.9 103.81 86.9Z" fill="#D9DFE4" class="below"/><path d="M233.95 203.44C260.03 203.44 260.08 162.9 233.95 162.9C207.82 162.9 207.82 203.44 233.95 203.44Z" fill="#FAC314" class="below"/><path d="M84.5001 169.49C99.6001 175.82 116.15 176.92 132 172.88C135.74 171.93 134.15 166.14 130.4 167.09C115.52 170.88 100.24 169.63 86.0901 163.7C82.5301 162.21 80.9801 168.01 84.4901 169.49H84.5001Z" fill="#232F35" class="below"/><path d="M89.6599 260.67C90.9499 258.66 93.6299 258.18 95.6299 259.37C96.9299 260.14 97.4199 260.4 98.8699 260.92C99.3199 261.08 99.7699 261.2 100.23 261.33C110.69 242.41 120.49 223.12 130.96 204.2C132.88 200.73 138.08 204.01 136.17 207.47C126.21 225.47 116.84 243.8 106.95 261.84C106.86 262.13 106.76 262.42 106.67 262.73C106.44 263.5 106.25 264.15 106.14 264.71C106.32 265.22 106.42 265.78 106.41 266.39C106.41 266.48 106.4 266.57 106.39 266.66C107.05 268.39 106.29 270.78 105.27 272.12C104.29 273.4 102.42 274.24 101.42 272.52C101 271.79 100.73 271.03 100.57 270.25C97.1599 269.61 93.9899 268.45 90.9699 266.65C88.9599 265.45 88.4399 262.6 89.6699 260.68L89.6599 260.67Z" fill="#232F35" class="below"/><path d="M202.94 231.53C203.54 229.64 206.13 230.33 207.31 231.12C209.6 232.65 211.8 234.33 213.82 236.21C213.99 236.05 214.15 235.89 214.31 235.72C214.8 235.22 215.28 234.69 215.72 234.15C216.69 232.96 216.98 232.48 217.69 231.15C218.79 229.09 221.33 228.12 223.47 229.18C225.51 230.18 226.54 232.9 225.44 234.96C223.79 238.06 221.66 240.69 219.08 243C219.35 243.75 219.51 244.55 219.53 245.39C219.56 247.38 217.53 247.63 216.03 247.04C214.46 246.42 212.57 244.76 212.25 242.94C212.2 242.87 212.14 242.79 212.09 242.72C211.77 242.2 211.56 241.67 211.46 241.14C211.07 240.72 210.57 240.26 209.98 239.72C208.51 238.39 207.23 237.38 205.75 236.39C204.33 235.44 202.33 233.46 202.94 231.53Z" fill="#232F35" class="below"/><path d="M117.45 127.85C118.5 126.45 120.02 125.73 121.68 125.3C122.6 125.06 122.8 123.25 121.62 123.56C119.46 124.13 117.59 125.21 116.24 127.01C115.5 128 116.72 128.83 117.45 127.85Z" fill="#232F35" class="below"/><path d="M138.79 132.24C138.57 131.26 138.12 130.01 137.42 129.25C136.98 128.77 136.29 128.07 135.55 128.31C134.77 128.56 134.53 129.26 134.28 129.97C133.95 130.89 133.97 131.93 134.01 132.89C134.05 133.97 134.34 135.07 134.7 136.08C134.99 136.9 135.58 137.98 136.33 138.5C136.85 138.86 137.62 139.06 138.14 138.56C138.75 137.97 138.97 137.03 139 136.22C139.02 135.81 139 135.4 138.96 134.99C139 134.66 139.02 134.34 138.99 134.01C139.01 133.42 138.94 132.83 138.79 132.26V132.24Z" fill="#232F35" class="below"/><path d="M133.46 125.22C135.06 125.04 136.62 125.04 138.12 125.69C138.98 126.06 140.31 124.62 139.38 124.22C137.61 123.45 135.83 123.32 133.92 123.54C133.44 123.59 132.94 123.89 132.82 124.39C132.72 124.8 132.98 125.27 133.46 125.22Z" fill="#232F35" class="below"/><path d="M90.7 163.46C95.98 180.32 101.93 197.11 110.4 212.67C117.7 223.91 140.4 212.52 151.31 211.07C160.19 207.81 170.92 208.05 178.77 202.63C186.04 197.16 179.91 154.62 181.48 142.18C181.05 135.57 171.98 134.05 166.87 135.7C143.52 140.65 120 145.14 97.29 152.61C92.29 154.25 89.08 158.26 90.7 163.45V163.46Z" fill="#FF5A00" class="primary"/><path d="M162.53 166.03C164.47 173.88 166.63 181.67 169.01 189.4C170.75 195.03 160.7 193.95 159.27 189.32C156.88 181.59 154.72 173.8 152.79 165.95C151.37 160.18 161.37 161.3 162.53 166.03Z" fill="#F6F7F8" class="above"/><path d="M142.63 170.58C144.57 178.43 146.73 186.22 149.11 193.95C150.85 199.58 140.8 198.5 139.37 193.87C136.98 186.14 134.82 178.35 132.89 170.5C131.47 164.73 141.47 165.85 142.63 170.58Z" fill="#F6F7F8" class="above"/><path d="M122.73 175.13C124.67 182.98 126.83 190.77 129.21 198.5C130.95 204.13 120.9 203.05 119.47 198.42C117.08 190.69 114.92 182.9 112.99 175.05C111.57 169.28 121.57 170.4 122.73 175.13Z" fill="#F6F7F8" class="above"/><path d="M131.93 152.91C133.53 152.1 134.97 151.08 136.3 149.87C137.06 149.18 135.3 148.24 134.6 148.88C133.38 149.99 132.01 150.9 130.54 151.64C130.09 151.87 130.27 152.46 130.55 152.73C130.92 153.09 131.49 153.14 131.93 152.91Z" fill="#232F36" class="above"/><path d="M178.86 180.63C179.4 190.2 182.19 202.11 171.9 207.02C165.7 209.98 158.56 210.57 151.87 211.73C143.93 213.1 136.19 215.44 128.27 216.9C122.29 218 117.64 218.06 114.06 212.77C110.86 208.04 108.55 202.66 106.27 197.45C105.59 195.9 103.89 197.01 104.49 198.38C107.82 206 111.71 219.6 121.63 220.07C128.04 220.38 134.13 217.95 140.3 216.66C144.58 215.77 148.89 214.87 153.21 214.15C160.87 212.87 170.04 212.21 176.39 207.23C184.11 201.19 181.27 188.83 180.79 180.38C180.7 178.75 178.76 179.03 178.85 180.63H178.86Z" fill="#FAC314" class="above"/><path d="M147.16 142.02C159.4 145.31 171.6 148.73 183.77 152.29C188.32 153.62 186.84 163.39 181.7 161.88C169.54 158.32 157.33 154.89 145.09 151.61C140.52 150.38 141.98 140.63 147.16 142.02Z" fill="#D9DFE4" class="above"/><path d="M115.02 149.37C105.42 157.65 95.9201 166.04 86.5101 174.53C82.9901 177.71 88.5701 185.86 92.5401 182.27C101.95 173.78 111.45 165.39 121.05 157.11C124.63 154.02 119.08 145.87 115.02 149.37Z" fill="#D9DFE4" class="above"/><path d="M93.0898 165.69C91.1998 157.73 97.8898 153.19 105 152.31C105.57 152.24 106.05 151.76 105.83 151.16C105.18 149.4 107.84 148.21 109.14 148.03C109.75 147.95 110.15 147.49 109.97 146.88C106.8 135.96 105.1 122.17 112.9 112.68C119.08 105.16 130.69 103.23 139.35 107.39C149.44 112.23 155.27 124.68 157.08 135.29C157.22 136.11 158.27 136.66 159.05 136.32C159.64 136.06 163.64 134.61 163.13 137.01C162.94 137.91 164 138.48 164.77 138.38C170.48 137.63 177.81 135.98 179.04 143.73C179.23 144.96 181.81 145.29 181.6 143.94C180.11 134.53 171.43 135.41 163.99 136.38C164.54 136.84 165.08 137.29 165.63 137.75C166.64 132.99 160.71 133.13 157.68 134.47C158.34 134.81 158.99 135.16 159.65 135.5C157.48 122.79 149.94 108.2 136.79 104.31C128.02 101.72 117.47 103.78 111.27 110.74C102.44 120.64 104.14 135.47 107.54 147.19L108.37 146.04C105.34 146.46 102.12 147.99 103.4 151.47L104.23 150.32C95.7898 151.36 88.4798 156.81 90.6598 166C90.9398 167.19 93.4498 167.16 93.0998 165.69H93.0898Z" fill="#FAC314" class="above"/><path d="M162.82 201.56C173.23 208.42 183.72 215.15 194.19 221.91C199.32 225.23 204.45 228.55 209.57 231.9C211.7 233.29 215.22 234.81 214.91 237.86C214.55 241.48 210.25 241.63 208.54 238.98C207.86 237.92 208.15 236.07 209.14 235.28L209.29 235.16C212.37 232.7 216.59 237.17 213.5 239.64L213.35 239.76C213.55 238.53 213.75 237.29 213.95 236.06L213.26 235.24C212.23 235.21 211.2 235.17 210.17 235.14L210.38 235.01C209.84 235.87 209.3 236.72 208.77 237.58C209.88 239.14 210.07 239.63 209.32 239.08C209.05 238.9 208.78 238.72 208.51 238.55C208.05 238.25 207.59 237.95 207.14 237.65C206.2 237.03 205.25 236.42 204.31 235.8C202.23 234.44 200.16 233.09 198.08 231.74C193.69 228.89 189.29 226.05 184.89 223.21C176.43 217.75 167.96 212.29 159.55 206.75C156.24 204.57 159.51 199.36 162.82 201.54V201.56Z" fill="#232F35" class="above"/><path d="M74.2801 180.16C76.5101 178.5 85.1801 171.39 87.3801 169.71C88.5801 168.79 89.7901 167.88 90.9901 166.96C91.6801 166.43 92.6301 165.92 92.8401 165.01C93.2501 163.22 90.7601 161.02 89.7801 159.8C88.7801 158.55 87.1901 155.74 85.2501 155.93C84.3101 156.02 83.4301 157 82.7301 157.53C81.6701 158.33 80.5801 159.11 79.4901 159.87C77.2001 161.45 68.3401 168.3 65.9201 169.66C65.3501 169.98 65.1801 170.52 65.2701 171.06C64.3201 171.27 63.7601 172.53 64.8001 173.71C66.6001 175.75 68.3301 177.9 70.2201 179.87C71.6501 181.36 72.7201 181.34 74.2901 180.17L74.2801 180.16Z" fill="#232F35" class="above"/><path d="M122.32 141.34C122.16 141.17 122.01 141 121.86 140.83C117.99 143.53 101.46 156.52 97.5902 159.22C96.5502 159.95 95.5102 160.67 94.4602 161.4C93.5502 162.04 92.5502 163.01 91.5202 163.41C89.8002 164.09 88.5702 161.96 87.9402 160.68C87.6702 160.13 87.6402 159.63 87.7602 159.23C87.5702 158.52 87.6602 157.75 88.2402 157.3C92.3902 154.1 109.2 140.61 113.35 137.41C114.36 136.63 115.38 135.85 116.39 135.07C116.53 134.96 116.67 134.85 116.81 134.72C116.6 134.44 116.39 134.16 116.18 133.88C114.98 132.21 118.33 130.41 119.39 131.9C121.27 134.52 123.31 137 125.5 139.35C126.88 140.83 123.54 142.68 122.29 141.33L122.32 141.34Z" fill="#232F35" class="above"/><path d="M57.1699 196.64C58.9199 195.28 69.6599 187.43 70.8199 186.48C78.3199 180.33 74.0499 181.15 64.9599 168.32C64.5499 167.8 63.8499 167.47 63.2299 167.94C60.7499 169.82 46.0199 180.44 44.6699 181.2C44.5099 181.29 44.3099 181.25 44.1999 181.1C43.8399 180.64 43.9299 180.76 43.4199 180.11C41.9499 178.22 40.2099 181.33 41.3499 182.79C46.0899 188.89 50.4499 194.13 55.5999 199.88C57.3199 201.94 59.6299 199.63 57.1799 196.64H57.1699Z" fill="#232F35" class="above"/><path d="M143.63 158.02C143.48 161.45 141.37 168.19 138.6 170.48C136.03 172.61 130.01 170.97 127.08 170.24C118.08 168.02 109.61 163.91 101.39 159.7C97.9601 157.94 94.9201 163.12 98.3601 164.88C108.82 170.23 120.31 176.15 132.2 177.2C136.4 177.57 140.86 177.36 143.56 173.84C146.81 169.59 149.4 163.38 149.63 158.02C149.79 154.16 143.79 154.17 143.63 158.02Z" fill="#232F35" class="above"/><path d="M99.0801 159.4C95.8901 160.5 91.3501 160.35 90.6501 156.08C90.5501 156.85 90.4501 157.62 90.3501 158.39L90.6301 157.78L88.8401 159.16L89.4301 158.92C88.6601 158.82 87.8901 158.72 87.1201 158.62C88.1101 159.23 88.9301 160.25 89.7601 161.06C91.0901 162.35 93.5601 162.2 94.4701 160.45C95.6601 158.17 94.2401 156.25 94.8801 153.88C93.0501 154.12 91.2201 154.36 89.4001 154.6C90.8701 156.72 91.9301 158.95 94.7401 159.09C96.2701 159.17 97.8601 157.65 97.7401 156.09C97.6301 154.66 97.5901 153.24 97.8001 151.82L92.3201 152.54C92.9701 153.65 93.6201 154.76 94.2701 155.86C95.7401 158.36 99.9701 157.37 99.8601 154.35C99.8001 152.78 99.9601 151.31 100.6 149.86C99.2301 150.22 97.8601 150.58 96.5001 150.94C95.8001 150.6 96.6901 151.89 96.8001 152.21C97.0601 152.97 97.3401 153.77 97.4701 154.57C97.6701 155.81 97.7801 157.67 96.7201 158.56C97.4301 158.27 98.1301 157.97 98.8401 157.68C97.8501 157.61 96.7501 157.15 95.7901 156.91C92.0401 155.97 90.4501 161.75 94.1901 162.7C96.0701 163.17 98.4801 164.27 100.35 163.28C102.22 162.29 103.02 159.94 103.38 158.08C103.83 155.74 103.46 153.33 102.75 151.09C102.13 149.15 101.49 146.73 99.5301 145.77C98.2101 145.12 96.1101 145.28 95.4301 146.85C94.3601 149.29 93.7801 151.69 93.8701 154.37C95.7301 153.87 97.6001 153.36 99.4601 152.86C98.8101 151.75 98.1601 150.64 97.5101 149.54C96.3201 147.52 92.4101 147.58 92.0301 150.26C91.7501 152.24 91.6001 154.13 91.7601 156.13L94.7601 153.13L94.2301 153.1C94.9401 153.39 95.6401 153.69 96.3501 153.98C95.6701 153.31 95.1401 152.38 94.6001 151.61C93.1801 149.57 89.8301 149.69 89.1201 152.33C88.4501 154.8 88.7601 156.83 89.2701 159.29L89.5701 156.98L89.3101 157.47C90.8801 157.27 92.4501 157.07 94.0201 156.86C91.9601 154.86 88.8901 151.25 85.9401 154.19C83.7501 156.37 85.2001 159.26 86.6701 161.32C90.1101 166.14 95.2301 167.11 100.71 165.23C104.34 163.98 102.78 158.19 99.1101 159.44L99.0801 159.4Z" fill="#232F35" class="above"/></svg>